<svg xmlns="http://www.w3.org/2000/svg" viewBox="0 0 935.15 695.84" id="office"><path fill="#f8f8ff" d="M671.37 479.69s-80.28-258.35 139.06-271.32 178.94 55.26 373.73 13.11 198.07-71.32 299.55-29.18 108 150.74 86.76 205.85-63.84 98.87-60.57 129.67 72.1 110 81.2 163.48c5 29.2-9.53 79-23.11 81.12-100.93 16.12-506.25-10.4-506.25-10.4l-235.27-10.4-125.93-17.15s4.31-72.23 3.89-129.34c-.43-58.52-33.06-125.44-33.06-125.44Z" transform="translate(-657.03 -171.76)"></path><path fill="#f5f5fc" d="M701 726.51s-27.44 113.37 123.12 105.66 148.77-24.43 243.77 5.14 154.15 41.15 227.64 18S1370.81 836 1464 836s125.1-99.43 127.53-113c2.87-16-3.84-68.48-17.16-68.64-98.5-1.2-708.61-6.31-756.71 7-41.33 11.42-91 49.36-114.89 59.47" transform="translate(-657.03 -171.76)"></path><path fill="#e9edfb" d="m719 627 93-38 1.6-380.36S745 213 718 239Z" transform="translate(-657.03 -171.76)"></path><path fill="#e9edfb" d="m718 239 2.27 387.5-16.27 6.75s2.32-17.63-1.68-55.91C698.64 541.66 660.84 455.08 658 422c-2-23.45-.89-119.16 22.5-147.57C702.09 248.21 718 239 718 239Z" transform="translate(-657.03 -171.76)"></path><ellipse cx="765.5" cy="338.5" fill="#fff" rx="19.5" ry="13.5" transform="rotate(-9.88 -556.204 4053.502)"></ellipse><ellipse cx="787.61" cy="334.43" fill="#fff" rx="15.91" ry="11.01" transform="rotate(-9.88 -534.117 4049.467)"></ellipse><ellipse cx="677.5" cy="385.5" fill="#fff" rx="19.5" ry="13.5" transform="rotate(-9.88 -644.253 4100.559)"></ellipse><ellipse cx="696.61" cy="375.43" fill="#fff" rx="15.91" ry="11.01" transform="rotate(-9.88 -625.141 4090.496)"></ellipse><path fill="#fff" d="m725.94 232.73 4.72-2.63.22-.11 2.94-1.47 2.81-1.27 4.56 390.56-9.78 4.06Z" transform="translate(-657.03 -171.76)"></path><path fill="#fff" d="m690.09 528.93-1.09-3.68c-.17.13-.85-2.67-.91-2.72l-1.25-3-1.13-3.26 126.87-47.93L813 479ZM659.23 430.25l-.36-2.15c-.24-.63-.51-3.11-.72-3.7l-.52-4.1-.46-3 156.46-59.8-.47 10.5Z" transform="translate(-657.03 -171.76)"></path><g><path fill="#e9edfa" d="M1082.48 571.9a32.48 32.48 0 0 0 6.39-15c.92-6.65 3.33-15.13 9.43-20.94 9.27-8.85 10.64-46 10.83-59.78a52.84 52.84 0 0 1 2.43-15.34c2.77-8.71 8.44-20.77 19.44-26.59 11.21-5.93 47-8.36 57.44.33 21.25 17.73 18.28 41 18.61 44.69 1.61 17.42.62 30.13 9.48 41.06s18.88 24.3 16.27 37.84 20.7 33.51-4.81 41.84-51.58 14.09-80 11.82c-25.18-2-59.61-6.09-66.38-22.75-3.36-8.33-1.67-13.8.87-17.18Z" transform="translate(-657.03 -171.76)"></path><path fill="#bac5f4" d="M1088.83 569.73c1.18-1.7 2.71-4.24 5.43-5.57s8.17-5.23 35.05 5.85c38.39 15.83 70-3.48 73-3.86s30.11-8.88 29.36 8.88-32.75 27.42-42.53 27.81-50.06 4.25-70-1.54-27.53-13.43-28.88-15.33c-1.48-2.08-6.41-9.08-1.43-16.24Z" transform="translate(-657.03 -171.76)"></path><path fill="#a2b7ed" d="M1091.4 698.94h1.91a6.22 6.22 0 0 0 6.33-6.32l-.16-9.05a2.56 2.56 0 0 0-1.61-2.33l-.63-.25a2.55 2.55 0 0 1-.57-4.44 6.3 6.3 0 0 1 1.33-.67c4.21-1.58 13.09-6.71 36.5-9.08 12.78-1.29 19.34-1.71 22.67-1.83a2.56 2.56 0 0 0 2.37-3.26 2.56 2.56 0 0 0-2.76-1.84c-8.21 1-37.44 4.53-47 6.75a56.44 56.44 0 0 0-16 6.72 7.45 7.45 0 0 0-3.45 5.45 2.54 2.54 0 0 1-1.1 1.89 13.46 13.46 0 0 1-3.08 1.56c-1.58.53-1.55 6-1.24 10.56a6.57 6.57 0 0 0 6.49 6.14ZM1233.16 698.94h-1.37a6.72 6.72 0 0 1-6.85-6.84l.15-8.53a2.56 2.56 0 0 1 1.6-2.33l.63-.25a2.55 2.55 0 0 0 .57-4.43 6.2 6.2 0 0 0-1.33-.68c-4.17-1.58-13-6.71-36.17-9.08-12.64-1.29-19.14-1.71-22.44-1.83a2.56 2.56 0 0 1-2.37-3.25 2.56 2.56 0 0 1 2.77-1.85c8.17 1 37.09 4.53 46.51 6.75a55.66 55.66 0 0 1 15.83 6.72 7.46 7.46 0 0 1 3.41 5.45 2.55 2.55 0 0 0 1.1 1.89 13.28 13.28 0 0 0 3 1.56c1.58.53 1.53 6.14 1.22 10.68a6.44 6.44 0 0 1-6.26 6.02Z" transform="translate(-657.03 -171.76)"></path><path fill="#a2b7ed" d="m1158.54 615.91-.2 75.71a1.8 1.8 0 0 1-1.8 1.8h-.4a1.8 1.8 0 0 0-1.8 1.85l.32 12.78a5.87 5.87 0 0 0 5.77 5.72l4 .06a6 6 0 0 0 6.11-6.24l-.46-12.43a1.8 1.8 0 0 0-1.8-1.74 1.8 1.8 0 0 1-1.8-1.81l.21-77.64a1.8 1.8 0 0 0-1.82-1.81h-4.59a1.8 1.8 0 0 0-1.79 1.88Z" transform="translate(-657.03 -171.76)"></path><path fill="#bac5f4" d="M1158.6 670.79s-61.17 24.63-70.82 32.8-11.23 13.34-10.79 15.53c0 .23.37.4.84.51a5.38 5.38 0 0 1 3.93 5.35l-.22 12.88a3.65 3.65 0 0 1-3.64 3.58h-6.9a3.65 3.65 0 0 1-3.65-3.59l-.22-12.8a5.45 5.45 0 0 1 4.62-5.49h.12s2.4-9.68 6.11-13 10.22-10.73 35.83-21.87 44.77-18.16 44.77-18.16ZM1166.38 669.84a2 2 0 0 0 1.23 1.87c8.4 3.6 57.22 24.71 65.56 32.17 9.13 8.17 10.62 13.34 10.21 15.53-.09.5-1.44.7-2.65.77a2 2 0 0 0-1.9 2.07l.22 13.66a5.93 5.93 0 0 0 5.93 5.84h1.73a5.88 5.88 0 0 0 5.88-5.78l.23-13.61a2 2 0 0 0-1.71-2l-1.51-.25a2 2 0 0 1-1.64-1.47c-.74-2.73-2.73-9.17-5.46-11.77-3.51-3.34-9.67-10.73-33.91-21.87-18.57-8.53-33.47-14.63-39.41-17a2 2 0 0 0-2.79 1.9Z" transform="translate(-657.03 -171.76)"></path></g><g><path fill="#fff" d="m173.97 556.24 1-174h23v175l-24-1zM705.05 379.14l.92 179.1h20l.44-178.37-21.36-.73z"></path><path fill="#fff" d="M103.97 361.24v21l688-2v-18l-688-1z"></path><path fill="#bac5f4" d="m103.97 361.24 49-15 583 1 56 15-688-1z"></path><path fill="#f8f8ff" d="m416.45 355.43 11.53-7.02 53.1-.35-8.01 6.82-56.62.55z"></path></g><g><path fill="#e9edfc" d="M809.08 480.9s-8.69-.4-9.81 2.4 2 41 3.36 43.26 15.21 2.92 19.13 2.92c0 0 14.51-1.29 15.22-2.28s10.55-40.49 7.33-45.77-34.73-.4-34.73-.4" transform="translate(-657.03 -171.76)"></path><path fill="#bac4f6" d="M798.56 489.88s27 2.07 30.19 1.16 2.14-9 2.14-9l13.42-.6s0 7.78-.91 8.7a12.67 12.67 0 0 0-2.29 4.12c0 .46-5.67 33.55-5.67 33.55s-8.69 1.34-9.84 1.2c-1.36-.17 3.62-27.37 3.62-29.26s0-5.49-1.37-5.49-27.84.8-28-2.16a4.93 4.93 0 0 0-1.29-2.2M809.19 481.76s-7.53-5.29-11.53-5.77S789 475 785 474.37s-9.1-2.41-9-4.75.58-3.46 2.93-4.85a15.86 15.86 0 0 1 6.57-2.43c1.76-.16 19.82 4.53 27.35 15.74l3 3.68Z" transform="translate(-657.03 -171.76)"></path><path fill="#bac4f6" d="M783.14 468.69s6.92-.09 10.71 1.14a60.72 60.72 0 0 1 8.6 4l11.33 7.89" transform="translate(-657.03 -171.76)"></path><path fill="none" stroke="#fff" stroke-linecap="round" stroke-miterlimit="10" stroke-width=".75" d="M783.14 468.69s6.92-.09 10.71 1.14a60.72 60.72 0 0 1 8.6 4l11.33 7.89" transform="translate(-657.03 -171.76)"></path><path fill="#bac4f6" d="M817.14 481.46s-8.76-11.9-12.17-15.25-7.4-7.18-10.69-10.68-7.44-8.52-5.69-10.58 3-3.46 6.19-3a15.12 15.12 0 0 1 6.95 2.57c1.77 1.14 17.67 16.31 20 33.74l2.29 3.53Z" transform="translate(-657.03 -171.76)"></path><path fill="none" stroke="#fff" stroke-linecap="round" stroke-miterlimit="10" stroke-width=".75" d="M796.55 449s6.82 4.08 9.5 8c2.53 3.66 6.54 10.21 6.54 10.21l4.55 12.49" transform="translate(-657.03 -171.76)"></path><path fill="#e9edfc" d="M821.5 482s-10.23-22.21-12.14-26.6-9.72-11-11.45-15.48-2.83-7.74-1-10.2 6.54-4.5 9.53-3c2.83 1.38 6.51 5.58 8.09 7.71 1.25 1.68 9.63 31.85 8.94 38.81l1.6 8.91Z" transform="translate(-657.03 -171.76)"></path><path fill="none" stroke="#fff" stroke-linecap="round" stroke-miterlimit="10" stroke-width=".75" d="M803.48 435s5.87 7.56 7.65 12c2 5 4 14.53 3.74 13l6.13 20.57" transform="translate(-657.03 -171.76)"></path><path fill="#e9edfc" d="M815.89 481.88s-9-10.27-13.39-12.26-9.38-4.24-13.67-6.38-9.44-5.77-8.57-7.95 1.77-3.06 4.86-3.47a21.11 21.11 0 0 1 8.16.22c2 .52 20.8 11.88 25.63 25.37l2.23 4.65Z" transform="translate(-657.03 -171.76)"></path><path fill="none" stroke="#fff" stroke-linecap="round" stroke-miterlimit="10" stroke-width=".75" d="M788.56 457.14s7.79 2.56 11.65 5.18a78.76 78.76 0 0 1 8.36 7.06l8.65 12.62" transform="translate(-657.03 -171.76)"></path><path fill="#bac4f6" d="M839.43 482.11s8.15-5 12.48-5.51 9.35-.94 13.68-1.55 9.85-2.3 9.74-4.54-.62-3.3-3.17-4.64a18.65 18.65 0 0 0-7.11-2.32c-1.91-.15-21.45 4.32-29.6 15l-3.29 3.52Z" transform="translate(-657.03 -171.76)"></path><path fill="#bac4f6" d="M867.63 469.62s-7.48-.09-11.59 1.09a69.93 69.93 0 0 0-9.3 3.8l-10.87 7.3" transform="translate(-657.03 -171.76)"></path><path fill="none" stroke="#fff" stroke-linecap="round" stroke-miterlimit="10" stroke-width=".75" d="M867.63 469.62s-7.48-.09-11.59 1.09a69.93 69.93 0 0 0-9.3 3.8l-10.87 7.3" transform="translate(-657.03 -171.76)"></path><path fill="#bac4f6" d="M830.84 481.82s9.47-11.36 13.16-14.56 8-6.86 11.57-10.2 8.05-8.13 6.15-10.11-3.24-3.31-6.7-2.89a17.74 17.74 0 0 0-7.52 2.45c-1.91 1.08-19.12 15.58-21.64 32.22l-2.47 3.37Z" transform="translate(-657.03 -171.76)"></path><path fill="none" stroke="#fff" stroke-linecap="round" stroke-miterlimit="10" stroke-width=".75" d="M853.12 450.79s-7.38 3.89-10.28 7.6c-2.74 3.5-7.07 9.75-7.07 9.75l-4.93 11.92" transform="translate(-657.03 -171.76)"></path><path fill="#e9edfc" d="M826.11 482.38s11.07-21.21 13.13-25.41 10.52-10.48 12.39-14.78 3.06-7.4 1.1-9.74-7.07-4.3-10.31-2.9c-3.06 1.32-7 5.33-8.76 7.36-1.36 1.61-10.42 30.41-9.68 37.07l-1.73 8.51Z" transform="translate(-657.03 -171.76)"></path><path fill="#bac4f6" d="M825.06 482.11s.89-20.69 3-27.42c1.43-4.46 2.83-12 4.7-16.25s-1-9.84-2.92-12.19-7-1.9-10.28-.51c-3.06 1.32-4.82 5.59-5.21 7.87-.35 2.08 7 27.05 6.22 36.19l.63 12.44Z" transform="translate(-657.03 -171.76)"></path><path fill="none" stroke="#fff" stroke-linecap="round" stroke-miterlimit="10" stroke-width=".75" d="M845.61 437.44s-6.35 7.22-8.28 11.45c-2.18 4.79-4.35 13.88-4 12.38l-7.19 20.2" transform="translate(-657.03 -171.76)"></path><path fill="#e9edfc" d="M832.19 482.22s9.79-9.81 14.48-11.71 10.15-4 14.79-6.09 10.21-5.51 9.27-7.59-1.91-2.92-5.26-3.32a25.83 25.83 0 0 0-8.83.21c-2.2.5-22.5 11.34-27.73 24.23l-2.41 4.44Z" transform="translate(-657.03 -171.76)"></path><path fill="none" stroke="#fff" stroke-linecap="round" stroke-miterlimit="10" stroke-width=".75" d="M861.76 458.6s-8.44 2.45-12.61 4.94a83.45 83.45 0 0 0-9 6.74l-9.54 10.58M823 430.16s1.69 17.73.71 22.5c-.41 2-.21 14.47-.21 14.47l-.35 13.87" transform="translate(-657.03 -171.76)"></path></g><g><path fill="#fff" d="M330.09 250.5h109.88v86.26H330.09z"></path><circle cx="382.7" cy="294.31" r="6.6" fill="#f5f5fc"></circle><path fill="#fff" d="M1032.86 506.47s2.76 7.27-.39 9.31-22.6 9.71-22.6 9.71-1.44 2.31 2 3.05c3.07.67 42.51.14 51 0a2.87 2.87 0 0 0 2.83-1.72c.2-.71-.05-1.49-1.56-2-2.61-.94-12.21-6.17-16.41-8.43-1.48-.8-1.88-2.34-2.17-3.75-.48-2.27-.84-4.78.76-5.26 2.5-.75-13.31.23-13.31.23" transform="translate(-657.03 -171.76)"></path></g><g><path fill="#e9edfa" d="m292.51 241.65 285.82-.46-.58-47.81-301.44 2.33-.18 45.94h16.38z"></path><path fill="#bac5f4" d="M435.48 201.96v32.92l134.48-.46v-32l-134.48-.46zM291.73 201.96v32.92l134.48-.46v-32l-134.48-.46z"></path><path fill="#fff" d="M291.74 209.89h7.01l.07 25.07-7.09-.08.01-24.99z"></path><path fill="#f5f5fc" d="M298.88 214.28h4.72l.17 20.57-4.95.11.06-20.68z"></path><path fill="#fff" d="M417.49 209.7h4.12l.04 25.06-4.16-.07V209.7z"></path><path fill="#f5f5fc" d="M421.71 214.09h4.72l.17 20.57-4.95.1.06-20.67zM303.98 211.06h4.72l.17 23.85-4.95.12.06-23.97z"></path><path fill="#fff" d="m308.6 216.79 2.42-1.94 12.25 17.89-2.64 2.14-12.03-18.09zM365.78 234.76h29.48l-.15-3.31-29.33.16v3.15z"></path><path fill="#e9edfa" d="M370.74 231.52h29.49l-.16-3.31-29.33.16v3.15z"></path><path fill="#fff" d="M440.2 208.69h4.14l.04 26.38-4.19-.08.01-26.3z"></path><path fill="#f5f5fc" d="M444.43 214.31h4.71l.17 20.56-4.95.11.07-20.67z"></path><path fill="#fff" d="M561.02 209.57h4.12l.04 25.06-4.16-.07v-24.99z"></path><path fill="#f5f5fc" d="m565.12 213.6 4.91.05.19 20.78-5.02.07-.08-20.9zM556.31 215.69h4.72l.19 18.93-5.03.06.12-18.99zM435.44 211.12h4.72l.17 23.85-4.95.12.06-23.97z"></path><path fill="#fff" d="m484.35 216.86 2.42-1.94 12.25 17.89-2.64 2.14-12.03-18.09zM464.37 234.83h29.49l-.16-3.31-29.33.16v3.15z"></path><path fill="#e9edfa" d="M462.75 231.71h29.48l-.16-3.31-29.32.16v3.15zM578.06 190.95l-.29-38.31h267.99l.66 91.54-268.13 2.19-.23-52.01"></path><path fill="#e9edfa" d="M1044.22 340.44s-2.58-.86-2.79-1.5-1.07-4.3.64-4.3h14.62s2.36 3.87-.64 4.73-.43 2.36.43 2.36 2.79 0 3.22 1.07.4 23.62.4 23.62h-21.68v-21.89a2.32 2.32 0 0 1 2.36-2.36c2.37-.01 4.09-.65 3.44-1.73Z" transform="translate(-657.03 -171.76)"></path><path fill="#fff" d="M384.59 177.35h15.21v9.43h-15.21z"></path><path fill="#bac5f4" d="M1069 340.44s-2.58-.86-2.79-1.5-1.07-4.3.64-4.3h14.62s2.36 3.87-.64 4.73-.43 2.36.43 2.36 2.79 0 3.22 1.07.4 23.62.4 23.62h-21.68v-21.89a2.32 2.32 0 0 1 2.36-2.36c2.44-.01 4.12-.65 3.44-1.73Z" transform="translate(-657.03 -171.76)"></path><path fill="#fff" d="M409.4 177.35h15.21v9.43H409.4z"></path><path fill="#e9edfa" d="M1094.66 340.17s-2.58-.86-2.79-1.5-1.07-4.3.64-4.3h14.62s2.36 3.87-.64 4.73-.43 2.36.43 2.36 2.79 0 3.22 1.07.4 23.62.4 23.62h-21.68v-21.89a2.32 2.32 0 0 1 2.36-2.36c2.36-.01 4.08-.65 3.44-1.73Z" transform="translate(-657.03 -171.76)"></path><path fill="#fff" d="M435.03 177.07h15.21v9.43h-15.21z"></path><path fill="#bac5f4" d="M587.28 161.95H711.1v75.62H587.28z"></path><circle cx="724.36" cy="201.72" r="5.4" fill="#bac5f4"></circle><path fill="#fff" d="M1327 383.38s-2.58-.86-2.79-1.5-1.07-4.3.64-4.3h14.62s2.36 3.87-.64 4.73-.43 2.36.43 2.36 2.79 0 3.22 1.07.4 23.62.4 23.62h-21.68v-21.9a2.32 2.32 0 0 1 2.36-2.36c2.34 0 4.06-.65 3.44-1.72Z" transform="translate(-657.03 -171.76)"></path><path fill="#f5f5fc" d="M667.34 220.28h15.21v9.43h-15.21z"></path></g></svg>